<svg width="20" height="20" viewBox="0 0 20 20" fill="none" xmlns="http://www.w3.org/2000/svg">
    <g clip-path="url(#clip0_4044_50622)">
        <mask id="mask0_4044_50622" style="mask-type:luminance" maskUnits="userSpaceOnUse" x="-10"
            y="-9" width="78" height="38">
            <path d="M-9.13037 -8.31139H67.0929V28.9067H-9.13037V-8.31139Z" fill="white" />
        </mask>
        <g mask="url(#mask0_4044_50622)">
            <path
                d="M18.8366 19.9333C19.4421 19.9333 19.9331 19.4424 19.9331 18.8369V1.1632C19.9331 0.557514 19.4421 0.0666828 18.8366 0.0666828H1.16286C0.557168 0.0666828 0.0664062 0.557514 0.0664062 1.1632V18.8369C0.0664062 19.4424 0.557168 19.9333 1.16286 19.9333H18.8366Z"
                fill="#3B5998" />
            <path
                d="M13.7741 19.9333V12.24H16.3565L16.7431 9.2417H13.7741V7.32742C13.7741 6.45934 14.0151 5.8678 15.26 5.8678L16.8477 5.86705V3.18541C16.573 3.14894 15.6306 3.06728 14.5341 3.06728C12.245 3.06728 10.6779 4.46453 10.6779 7.03057V9.2417H8.08887V12.24H10.6779V19.9333H13.7741Z"
                fill="white" />
        </g>
    </g>
    <defs>
        <clipPath id="clip0_4044_50622">
            <rect width="20" height="20" fill="white" />
        </clipPath>
    </defs>
</svg>
    