<svg width="20" height="20" viewBox="0 0 20 20" fill="none" xmlns="http://www.w3.org/2000/svg">
    <g clip-path="url(#clip0_4044_50670)">
        <path
            d="M19.6005 10.2273C19.6005 9.51825 19.5369 8.83643 19.4187 8.18188H10.0005V12.0546H15.3823C15.1459 13.3001 14.4369 14.3546 13.3732 15.0637V17.5819H16.6187C18.5096 15.8364 19.6005 13.2728 19.6005 10.2273Z"
            fill="#4285F4" />
        <path
            d="M10 19.9998C12.7 19.9998 14.9637 19.1089 16.6182 17.5817L13.3728 15.0635C12.4818 15.6635 11.3455 16.0271 10 16.0271C7.40003 16.0271 5.19094 14.2726 4.40003 11.9089H1.07275V14.4908C2.71821 17.7544 6.09094 19.9998 10 19.9998Z"
            fill="#34A853" />
        <path
            d="M4.4 11.8996C4.2 11.2996 4.08182 10.6633 4.08182 9.99964C4.08182 9.336 4.2 8.69964 4.4 8.09964V5.51782H1.07273C0.390909 6.86328 0 8.38146 0 9.99964C0 11.6178 0.390909 13.136 1.07273 14.4815L3.66364 12.4633L4.4 11.8996Z"
            fill="#FBBC05" />
        <path
            d="M10 3.98182C11.4728 3.98182 12.7818 4.49091 13.8273 5.47273L16.6909 2.60909C14.9546 0.990909 12.7 0 10 0C6.09094 0 2.71821 2.24545 1.07275 5.51818L4.40003 8.1C5.19094 5.73636 7.40003 3.98182 10 3.98182Z"
            fill="#EA4335" />
    </g>
    <defs>
        <clipPath id="clip0_4044_50670">
            <rect width="20" height="20" fill="white" />
        </clipPath>
    </defs>
</svg>
    