<svg width="20" height="20" viewBox="0 0 20 20" fill="none" xmlns="http://www.w3.org/2000/svg">
    <g clip-path="url(#clip0_4044_50642)">
        <path
            d="M10.0033 0C5.82836 0 4.60735 0.0043086 4.37001 0.0239999C3.51325 0.0952365 2.98013 0.230173 2.39931 0.519421C1.9517 0.741755 1.59869 0.999466 1.25029 1.36073C0.6158 2.01955 0.231256 2.83008 0.0920485 3.79355C0.0243722 4.26128 0.00468074 4.35667 0.000681995 6.7458C-0.000852494 7.54218 0.000681995 8.59026 0.000681995 9.99607C0.000681995 14.1687 0.00529299 15.3888 0.0252943 15.6258C0.0945125 16.4597 0.225254 16.9844 0.502127 17.5583C1.03126 18.6568 2.04183 19.4815 3.23238 19.7892C3.64462 19.8954 4.09991 19.9538 4.68442 19.9815C4.93207 19.9923 7.4562 20 9.98188 20C12.5076 20 15.0332 19.9969 15.2747 19.9846C15.9515 19.9528 16.3445 19.9 16.7791 19.7877C17.9773 19.4784 18.9694 18.666 19.5093 17.5521C19.7808 16.992 19.9185 16.4474 19.9808 15.657C19.9943 15.4847 20 12.7372 20 9.99347C20 7.24923 19.9938 4.50684 19.9803 4.33451C19.9172 3.53137 19.7796 2.99133 19.4993 2.42051C19.2694 1.95324 19.014 1.60428 18.6433 1.24749C17.9818 0.615436 17.1727 0.230786 16.2086 0.0916989C15.7414 0.0241512 15.6484 0.00414992 13.258 0H10.0033Z"
            fill="url(#paint0_radial_4044_50642)" />
        <path
            d="M10.0033 0C5.82836 0 4.60735 0.0043086 4.37001 0.0239999C3.51325 0.0952365 2.98013 0.230173 2.39931 0.519421C1.9517 0.741755 1.59869 0.999466 1.25029 1.36073C0.6158 2.01955 0.231256 2.83008 0.0920485 3.79355C0.0243722 4.26128 0.00468074 4.35667 0.000681995 6.7458C-0.000852494 7.54218 0.000681995 8.59026 0.000681995 9.99607C0.000681995 14.1687 0.00529299 15.3888 0.0252943 15.6258C0.0945125 16.4597 0.225254 16.9844 0.502127 17.5583C1.03126 18.6568 2.04183 19.4815 3.23238 19.7892C3.64462 19.8954 4.09991 19.9538 4.68442 19.9815C4.93207 19.9923 7.4562 20 9.98188 20C12.5076 20 15.0332 19.9969 15.2747 19.9846C15.9515 19.9528 16.3445 19.9 16.7791 19.7877C17.9773 19.4784 18.9694 18.666 19.5093 17.5521C19.7808 16.992 19.9185 16.4474 19.9808 15.657C19.9943 15.4847 20 12.7372 20 9.99347C20 7.24923 19.9938 4.50684 19.9803 4.33451C19.9172 3.53137 19.7796 2.99133 19.4993 2.42051C19.2694 1.95324 19.014 1.60428 18.6433 1.24749C17.9818 0.615436 17.1727 0.230786 16.2086 0.0916989C15.7414 0.0241512 15.6484 0.00414992 13.258 0H10.0033Z"
            fill="url(#paint1_radial_4044_50642)" />
        <path
            d="M10.0033 0C5.82836 0 4.60735 0.0043086 4.37001 0.0239999C3.51325 0.0952365 2.98013 0.230173 2.39931 0.519421C1.9517 0.741755 1.59869 0.999466 1.25029 1.36073C0.6158 2.01955 0.231256 2.83008 0.0920485 3.79355C0.0243722 4.26128 0.00468074 4.35667 0.000681995 6.7458C-0.000852494 7.54218 0.000681995 8.59026 0.000681995 9.99607C0.000681995 14.1687 0.00529299 15.3888 0.0252943 15.6258C0.0945125 16.4597 0.225254 16.9844 0.502127 17.5583C1.03126 18.6568 2.04183 19.4815 3.23238 19.7892C3.64462 19.8954 4.09991 19.9538 4.68442 19.9815C4.93207 19.9923 7.4562 20 9.98188 20C12.5076 20 15.0332 19.9969 15.2747 19.9846C15.9515 19.9528 16.3445 19.9 16.7791 19.7877C17.9773 19.4784 18.9694 18.666 19.5093 17.5521C19.7808 16.992 19.9185 16.4474 19.9808 15.657C19.9943 15.4847 20 12.7372 20 9.99347C20 7.24923 19.9938 4.50684 19.9803 4.33451C19.9172 3.53137 19.7796 2.99133 19.4993 2.42051C19.2694 1.95324 19.014 1.60428 18.6433 1.24749C17.9818 0.615436 17.1727 0.230786 16.2086 0.0916989C15.7414 0.0241512 15.6484 0.00414992 13.258 0H10.0033Z"
            fill="url(#paint2_radial_4044_50642)" />
        <path
            d="M10.0033 0C5.82836 0 4.60735 0.0043086 4.37001 0.0239999C3.51325 0.0952365 2.98013 0.230173 2.39931 0.519421C1.9517 0.741755 1.59869 0.999466 1.25029 1.36073C0.6158 2.01955 0.231256 2.83008 0.0920485 3.79355C0.0243722 4.26128 0.00468074 4.35667 0.000681995 6.7458C-0.000852494 7.54218 0.000681995 8.59026 0.000681995 9.99607C0.000681995 14.1687 0.00529299 15.3888 0.0252943 15.6258C0.0945125 16.4597 0.225254 16.9844 0.502127 17.5583C1.03126 18.6568 2.04183 19.4815 3.23238 19.7892C3.64462 19.8954 4.09991 19.9538 4.68442 19.9815C4.93207 19.9923 7.4562 20 9.98188 20C12.5076 20 15.0332 19.9969 15.2747 19.9846C15.9515 19.9528 16.3445 19.9 16.7791 19.7877C17.9773 19.4784 18.9694 18.666 19.5093 17.5521C19.7808 16.992 19.9185 16.4474 19.9808 15.657C19.9943 15.4847 20 12.7372 20 9.99347C20 7.24923 19.9938 4.50684 19.9803 4.33451C19.9172 3.53137 19.7796 2.99133 19.4993 2.42051C19.2694 1.95324 19.014 1.60428 18.6433 1.24749C17.9818 0.615436 17.1727 0.230786 16.2086 0.0916989C15.7414 0.0241512 15.6484 0.00414992 13.258 0H10.0033Z"
            fill="url(#paint3_radial_4044_50642)" />
        <path
            d="M10.0247 2.56348C8.00513 2.56348 7.75168 2.5723 6.95848 2.60837C6.16685 2.64459 5.62649 2.76983 5.15367 2.95359C4.66459 3.14338 4.24971 3.39726 3.83639 3.81043C3.42276 4.22345 3.16868 4.63801 2.97813 5.12658C2.79378 5.5992 2.66829 6.13931 2.63266 6.93006C2.59719 7.72265 2.58789 7.97607 2.58789 9.9941C2.58789 12.0121 2.59688 12.2646 2.63281 13.0572C2.66923 13.8483 2.79456 14.3882 2.97829 14.8607C3.16837 15.3494 3.42244 15.764 3.83592 16.177C4.2491 16.5903 4.66397 16.8448 5.15274 17.0346C5.62586 17.2184 6.16639 17.3436 6.95786 17.3798C7.75106 17.4159 8.00435 17.4247 10.0237 17.4247C12.0434 17.4247 12.2961 17.4159 13.0893 17.3798C13.8809 17.3436 14.4219 17.2184 14.895 17.0346C15.384 16.8448 15.7982 16.5903 16.2114 16.177C16.625 15.764 16.8791 15.3494 17.0696 14.8609C17.2524 14.3882 17.3779 13.8481 17.4151 13.0574C17.4507 12.2648 17.46 12.0121 17.46 9.9941C17.46 7.97606 17.4507 7.72281 17.4151 6.93021C17.3779 6.13915 17.2524 5.5992 17.0696 5.12674C16.8791 4.63801 16.625 4.22345 16.2114 3.81043C15.7977 3.3971 15.3841 3.14322 14.8946 2.95358C14.4205 2.76983 13.8798 2.64459 13.0882 2.60837C12.295 2.5723 12.0425 2.56348 10.0223 2.56348H10.0247ZM9.35757 3.90254C9.55556 3.90223 9.77648 3.90254 10.0247 3.90254C12.0101 3.90254 12.2454 3.90966 13.0295 3.94526C13.7545 3.9784 14.148 4.09945 14.4101 4.20115C14.7571 4.33583 15.0046 4.49683 15.2647 4.7569C15.5249 5.01698 15.686 5.26467 15.8211 5.61142C15.9229 5.87304 16.0442 6.26625 16.0772 6.99074C16.1128 7.77405 16.1206 8.00935 16.1206 9.9924C16.1206 11.9754 16.1128 12.2108 16.0772 12.9941C16.0441 13.7186 15.9229 14.1118 15.8211 14.3734C15.6864 14.7201 15.5249 14.9671 15.2647 15.227C15.0044 15.487 14.7573 15.648 14.4101 15.7827C14.1483 15.8849 13.7545 16.0056 13.0295 16.0388C12.2456 16.0744 12.0101 16.0821 10.0247 16.0821C8.03905 16.0821 7.80373 16.0744 7.01983 16.0388C6.29481 16.0053 5.90132 15.8843 5.63904 15.7826C5.29201 15.6479 5.04414 15.4869 4.78388 15.2268C4.52361 14.9667 4.3625 14.7197 4.2274 14.3728C4.12562 14.1111 4.00432 13.7179 3.97133 12.9934C3.93569 12.2101 3.92856 11.9748 3.92856 9.99054C3.92856 8.00626 3.93569 7.77219 3.97133 6.98888C4.00448 6.26439 4.12562 5.87119 4.2274 5.60926C4.36218 5.2625 4.52361 5.01481 4.78388 4.75474C5.04414 4.49466 5.29201 4.33367 5.63904 4.19868C5.90116 4.09651 6.29481 3.97577 7.01983 3.94248C7.70582 3.91151 7.97166 3.90223 9.35758 3.90067L9.35757 3.90254ZM13.994 5.13633C13.5014 5.13633 13.1017 5.53527 13.1017 6.02769C13.1017 6.51998 13.5014 6.91938 13.994 6.91938C14.4867 6.91938 14.8864 6.51998 14.8864 6.02769C14.8864 5.53542 14.4867 5.13603 13.994 5.13603L13.994 5.13633ZM10.0247 6.17816C7.91573 6.17816 6.20589 7.88675 6.20589 9.9941C6.20589 12.1015 7.91573 13.8093 10.0247 13.8093C12.1336 13.8093 13.8428 12.1015 13.8428 9.9941C13.8428 7.88675 12.1334 6.17816 10.0245 6.17816H10.0247ZM10.0247 7.51723C11.3935 7.51723 12.5034 8.6261 12.5034 9.9941C12.5034 11.362 11.3935 12.471 10.0247 12.471C8.65564 12.471 7.54594 11.362 7.54594 9.9941C7.54594 8.6261 8.65564 7.51723 10.0247 7.51723Z"
            fill="white" />
    </g>
    <defs>
        <radialGradient id="paint0_radial_4044_50642" cx="0" cy="0" r="1"
            gradientUnits="userSpaceOnUse"
            gradientTransform="translate(19.3542 9.37425) rotate(164.25) scale(12.7789 9.20656)">
            <stop stop-color="#FF005F" />
            <stop offset="1" stop-color="#FC01D8" />
        </radialGradient>
        <radialGradient id="paint1_radial_4044_50642" cx="0" cy="0" r="1"
            gradientUnits="userSpaceOnUse"
            gradientTransform="translate(5.31235 21.5404) rotate(-90) scale(15.9644 16.9379)">
            <stop stop-color="#FFCC00" />
            <stop offset="0.1242" stop-color="#FFCC00" />
            <stop offset="0.5672" stop-color="#FE4A05" />
            <stop offset="0.6942" stop-color="#FF0F3F" />
            <stop offset="1" stop-color="#FE0657" stop-opacity="0" />
        </radialGradient>
        <radialGradient id="paint2_radial_4044_50642" cx="0" cy="0" r="1"
            gradientUnits="userSpaceOnUse"
            gradientTransform="translate(10.5054 19.7179) rotate(-59.8703) scale(6.60141 8.59429)">
            <stop stop-color="#FFCC00" />
            <stop offset="1" stop-color="#FFCC00" stop-opacity="0" />
        </radialGradient>
        <radialGradient id="paint3_radial_4044_50642" cx="0" cy="0" r="1"
            gradientUnits="userSpaceOnUse"
            gradientTransform="translate(2.71357 0.814394) rotate(164.274) scale(12.6371 4.30546)">
            <stop stop-color="#780CFF" />
            <stop offset="1" stop-color="#820BFF" stop-opacity="0" />
        </radialGradient>
        <clipPath id="clip0_4044_50642">
            <rect width="20" height="20" fill="white" />
        </clipPath>
    </defs>
</svg>
    