<svg width="20" height="20" viewBox="0 0 20 20" fill="none" xmlns="http://www.w3.org/2000/svg">
    <path
        d="M16.1755 4.27729C16.0406 4.20752 15.9091 4.13104 15.7818 4.04813C15.4115 3.80333 15.072 3.51489 14.7706 3.18901C14.0165 2.32613 13.7348 1.45076 13.6311 0.837875H13.6353C13.5486 0.32915 13.5844 0 13.5898 0H10.155V13.2818C10.155 13.4602 10.155 13.6364 10.1475 13.8106C10.1475 13.8322 10.1454 13.8522 10.1442 13.8756C10.1442 13.8851 10.1442 13.8951 10.1421 13.9051C10.1421 13.9076 10.1421 13.9101 10.1421 13.9126C10.1059 14.3892 9.95312 14.8495 9.69724 15.2532C9.44136 15.6568 9.09021 15.9914 8.67466 16.2275C8.24158 16.4739 7.75175 16.6032 7.25349 16.6025C5.65315 16.6025 4.35613 15.2976 4.35613 13.686C4.35613 12.0744 5.65315 10.7695 7.25349 10.7695C7.55642 10.7692 7.85749 10.8169 8.14552 10.9107L8.14969 7.41338C7.2753 7.30043 6.387 7.36992 5.54081 7.61747C4.69462 7.86502 3.90892 8.28524 3.23327 8.85164C2.64124 9.36603 2.14352 9.97979 1.76251 10.6653C1.61752 10.9153 1.07046 11.9198 1.00421 13.5502C0.962548 14.4755 1.24045 15.4342 1.37294 15.8305V15.8388C1.45627 16.0721 1.77917 16.8683 2.3054 17.5395C2.72973 18.078 3.23106 18.5509 3.79324 18.9432V18.9349L3.80157 18.9432C5.46441 20.0732 7.30807 19.999 7.30807 19.999C7.62722 19.9861 8.69633 19.999 9.91044 19.4236C11.257 18.7857 12.0237 17.8354 12.0237 17.8354C12.5134 17.2675 12.9029 16.6204 13.1753 15.9217C13.4861 15.1047 13.5898 14.1247 13.5898 13.7331V6.68675C13.6315 6.71175 14.1865 7.07881 14.1865 7.07881C14.1865 7.07881 14.986 7.59129 16.2335 7.92502C17.1284 8.16251 18.3342 8.21251 18.3342 8.21251V4.80268C17.9117 4.84851 17.0538 4.71518 16.1755 4.27729Z"
        fill="black" />
</svg>
    