<svg width="20" height="20" viewBox="0 0 20 20" fill="none" xmlns="http://www.w3.org/2000/svg">
    <path
        d="M9.9938 3C9.9938 3 3.74298 3.00001 2.17411 3.40767C1.33408 3.64238 0.642384 4.33409 0.40767 5.18647C8.91091e-06 6.75534 0 10.0044 0 10.0044C0 10.0044 8.91091e-06 13.2657 0.40767 14.8099C0.642384 15.6622 1.32173 16.3416 2.17411 16.5763C3.75534 16.9963 9.9938 16.9963 9.9938 16.9963C9.9938 16.9963 16.257 16.9963 17.8259 16.5887C18.6782 16.354 19.3576 15.687 19.5799 14.8222C20 13.2657 20 10.0167 20 10.0167C20 10.0167 20.0123 6.75534 19.5799 5.18647C19.3576 4.33409 18.6782 3.65475 17.8259 3.43239C16.257 3.00002 9.9938 3 9.9938 3ZM8.00489 7.00254L13.2057 10.0044L8.00489 12.9938V7.00254Z"
        fill="#FF0000" />
</svg>
    