<svg xmlns="http://www.w3.org/2000/svg" width="14" height="16" viewBox="0 0 14 16" fill="none">
  <path d="M13.2993 3.69795L7.51388 0.161645C7.17104 -0.052676 6.72821 -0.052676 6.39251 0.154501L0.521401 3.66937C0.192847 3.86226 0 4.20518 0 4.57667V11.935C0 12.3065 0.185704 12.6423 0.492831 12.8352L3.53552 14.7498C3.59981 14.7927 3.69266 14.7712 3.73551 14.7069C3.77837 14.6426 3.75694 14.5498 3.69266 14.5069L0.642823 12.5923C0.414263 12.4494 0.285699 12.2065 0.285699 11.935V4.57667C0.285699 4.30519 0.428548 4.05515 0.66425 3.91227L6.53536 0.397399C6.77821 0.247374 7.10676 0.247374 7.35675 0.404543L13.1493 3.94799C13.385 4.09087 13.5207 4.34091 13.5207 4.61239V11.8279C13.5207 12.0922 13.385 12.3351 13.1636 12.4851L8.26384 15.5928C8.01385 15.75 7.71387 15.7642 7.45674 15.6214C7.19961 15.4785 7.04962 15.2284 7.04962 14.9355V12.1422C7.13533 12.1922 7.22818 12.2137 7.32104 12.2137C7.39246 12.2137 7.45674 12.1994 7.52817 12.1779C9.07808 11.5564 10.1637 11.885 10.6709 12.1351C10.828 12.2137 11.0065 12.2137 11.1708 12.1351C11.328 12.0565 11.4351 11.9207 11.4708 11.7493L12.6922 5.82688C12.7207 5.66971 12.685 5.50539 12.5779 5.3768C12.4779 5.24821 12.3208 5.16962 12.1565 5.16962C11.9351 5.16248 11.6494 5.16962 11.2994 5.1982V3.95513C11.2994 3.79797 11.1708 3.66937 11.0066 3.66937C9.88518 3.68366 7.87101 4.05515 6.93534 6.3984L6.90677 6.4627L6.8782 6.39125C5.94254 4.04801 3.92836 3.67652 2.80699 3.66223C2.64986 3.66223 2.52129 3.79082 2.52129 3.94799V5.17677C2.16417 5.14819 1.87847 5.14105 1.64991 5.14819C1.48563 5.15533 1.33564 5.22678 1.22851 5.35537C1.12851 5.48396 1.08566 5.64827 1.11423 5.81259L2.32845 11.7279C2.36416 11.8993 2.4713 12.0351 2.62843 12.1136C2.78556 12.1922 2.97127 12.1922 3.1284 12.1136C3.63552 11.8636 4.71403 11.535 6.27109 12.1565C6.33537 12.1851 6.4068 12.1922 6.47822 12.1922C6.57108 12.1922 6.67107 12.1636 6.74964 12.1208V14.9284C6.74964 15.3213 6.95677 15.6714 7.30675 15.8643C7.47103 15.9571 7.64959 16 7.82815 16C8.02814 16 8.22813 15.9428 8.40669 15.8285L13.3064 12.7209C13.6136 12.5208 13.7993 12.1851 13.7993 11.8207V4.60524C13.8135 4.23375 13.6207 3.89798 13.2993 3.69795ZM12.1493 5.4411C12.2279 5.4411 12.2993 5.47682 12.3493 5.54111C12.3993 5.60541 12.4208 5.68399 12.4065 5.76258L11.1851 11.6779C11.1708 11.7636 11.1137 11.8279 11.0423 11.8636C10.9637 11.8993 10.8708 11.8993 10.7994 11.8636C10.2494 11.5921 9.08523 11.2349 7.42817 11.8993C7.33532 11.935 7.24247 11.9207 7.1639 11.8636C7.12105 11.835 7.05676 11.7707 7.05676 11.6493V6.83419C7.05676 6.72703 7.12105 6.63415 7.22104 6.59129C9.49235 5.61255 11.1208 5.4411 11.9708 5.4411C12.0351 5.4411 12.0994 5.4411 12.1493 5.4411ZM6.76392 9.77039V11.6564C6.76392 11.7421 6.72107 11.8207 6.64964 11.8707C6.57107 11.9207 6.47822 11.935 6.38537 11.8993C4.72832 11.2349 3.56409 11.5921 3.01412 11.8636C2.93556 11.8993 2.84985 11.8993 2.77128 11.8636C2.69271 11.8279 2.64271 11.7564 2.62843 11.6779L1.41421 5.76258C1.39992 5.68399 1.42135 5.60541 1.47135 5.54111C1.52135 5.47682 1.59277 5.4411 1.67134 5.4411C2.46415 5.41966 4.15692 5.53397 6.60679 6.59129C6.70678 6.63415 6.77106 6.72703 6.77106 6.83419V9.77039H6.76392Z" fill="white"/>
</svg>