<svg width="32" height="32" viewBox="0 0 32 32" fill="none" xmlns="http://www.w3.org/2000/svg">
<path d="M0.5 9.47486C0.5 4.51818 4.51818 0.5 9.47486 0.5H22.5251C27.4818 0.5 31.5 4.51818 31.5 9.47486V22.5251C31.5 27.4818 27.4818 31.5 22.5251 31.5H9.47486C4.51818 31.5 0.5 27.4818 0.5 22.5251V9.47486Z" fill="#F5F1FB" fill-opacity="0.95" stroke="white"/>
<path d="M17.03 9.46C17.0246 9.87196 16.692 10.2046 16.28 10.21C15.868 10.2046 15.5354 9.87196 15.53 9.46V6.75C15.53 6.33579 15.8658 6 16.28 6C16.6942 6 17.03 6.33579 17.03 6.75V9.46Z" fill="#34317D"/>
<path fill-rule="evenodd" clip-rule="evenodd" d="M16.35 11.13H16.28C14.3699 11.0954 12.6071 12.1522 11.7375 13.8531C10.8678 15.5541 11.0435 17.6019 12.19 19.13C13.1888 20.4665 13.7447 22.0819 13.78 23.75C13.9396 25.0092 15.0108 25.9531 16.28 25.9531C17.5492 25.9531 18.6204 25.0092 18.78 23.75C18.727 22.149 19.2247 20.5783 20.19 19.3C20.8713 18.4459 21.2542 17.3922 21.28 16.3C21.3143 13.5234 19.1251 11.2276 16.35 11.13ZM16.28 24.75C15.7277 24.75 15.28 24.3023 15.28 23.75V23.49H17.34V23.77C17.335 24.0425 17.2191 24.3011 17.019 24.4861C16.8189 24.6711 16.552 24.7664 16.28 24.75Z" fill="#34317D"/>
<path d="M16.28 11.13L16.33 12.63C17.6785 12.6502 18.8984 13.4349 19.4759 14.6537C20.0535 15.8725 19.8883 17.3135 19.05 18.37C18.2404 19.4173 17.6981 20.6461 17.47 21.95H15.07C14.7692 20.6054 14.1976 19.3363 13.39 18.22C12.6226 17.1397 12.5229 15.7213 13.1314 14.5443C13.74 13.3672 14.9549 12.6285 16.28 12.63V11.13Z" fill="#34317D"/>
<path d="M23.59 8.87C23.2972 8.57755 22.8228 8.57755 22.53 8.87L20.66 10.73C20.3717 11.0284 20.3717 11.5016 20.66 11.8C20.9624 12.0783 21.4276 12.0783 21.73 11.8L23.59 9.93C23.8825 9.63718 23.8825 9.16282 23.59 8.87Z" fill="#34317D"/>
<path d="M23 15.03H25.63C26.0442 15.03 26.38 15.3658 26.38 15.78C26.38 16.1942 26.0442 16.53 25.63 16.53H23C22.5858 16.53 22.25 16.1942 22.25 15.78C22.25 15.3658 22.5858 15.03 23 15.03Z" fill="#34317D"/>
<path d="M9.38 15.03H6.75C6.33579 15.03 6 15.3658 6 15.78C6 16.1942 6.33579 16.53 6.75 16.53H9.38C9.79421 16.53 10.13 16.1942 10.13 15.78C10.13 15.3658 9.79421 15.03 9.38 15.03Z" fill="#34317D"/>
<path d="M12.0144 11.265C12.0144 11.4662 11.9335 11.659 11.79 11.8C11.6473 11.9361 11.4572 12.0114 11.26 12.01C11.063 12.0104 10.8733 11.9352 10.73 11.8L8.87 9.93C8.66935 9.74303 8.58675 9.46144 8.65462 9.19571C8.72248 8.92998 8.92998 8.72248 9.19571 8.65461C9.46145 8.58675 9.74303 8.66935 9.93 8.87L11.79 10.73C11.9335 10.871 12.0144 11.0638 12.0144 11.265Z" fill="#34317D"/>
</svg>
