<svg width="22" height="22" viewBox="0 0 22 22" fill="none" xmlns="http://www.w3.org/2000/svg">
<circle cx="11.0001" cy="10.9999" r="7.07143" fill="#6E40C5"/>
<path d="M13.5295 8.42871C13.2892 8.42871 13.0634 8.52233 12.8935 8.69232L9.56523 12.026L8.67816 11.139C8.50833 10.9691 8.28251 10.8755 8.04232 10.8755C7.80208 10.8755 7.57627 10.9691 7.4064 11.139C7.23657 11.3088 7.14307 11.5346 7.14307 11.7748C7.14307 12.015 7.23657 12.2408 7.4064 12.4106L8.92951 13.9337C9.09934 14.1036 9.32515 14.1971 9.56539 14.1971C9.8055 14.1971 10.0314 14.1035 10.2014 13.9335L14.1654 9.96388C14.5159 9.61321 14.5159 9.04271 14.1654 8.69204C13.9956 8.52225 13.7697 8.42871 13.5295 8.42871Z" fill="white"/>
</svg>
