<svg width="14" height="15" viewBox="0 0 14 15" fill="none" xmlns="http://www.w3.org/2000/svg">
<path fill-rule="evenodd" clip-rule="evenodd" d="M2.91731 0.5H11.0823C11.4552 0.499992 11.7684 0.499985 12.0247 0.521364C12.2927 0.543723 12.5473 0.592281 12.7891 0.717988C13.1573 0.909419 13.458 1.21492 13.6462 1.59186C13.7693 1.8385 13.8169 2.09836 13.8387 2.37161C13.8597 2.63296 13.8597 2.95224 13.8596 3.33196V11.668C13.8597 12.0477 13.8597 12.3669 13.8387 12.6281C13.8168 12.9013 13.7693 13.161 13.6462 13.4076C13.4583 13.7839 13.1579 14.0904 12.7891 14.2822C12.5474 14.4078 12.2929 14.4563 12.0252 14.4787C11.7692 14.5 11.4564 14.5 11.0843 14.5H2.91497C2.54285 14.5 2.22995 14.5 1.97383 14.4787C1.70604 14.4563 1.45138 14.4078 1.20967 14.2822C0.84027 14.0901 0.540879 13.7833 0.353276 13.4076C0.230084 13.1609 0.182497 12.9011 0.160585 12.6276C0.139633 12.366 0.13964 12.0464 0.139649 11.666V3.33435C0.13964 2.95384 0.139633 2.63404 0.160582 2.37233C0.18248 2.09875 0.230036 1.83867 0.353276 1.59186C0.541188 1.21554 0.840875 0.909734 1.20967 0.717988C1.45155 0.592232 1.70642 0.543706 1.97453 0.52136C2.23101 0.499985 2.54441 0.499992 2.91731 0.5ZM2.06571 1.66042C1.86677 1.677 1.77574 1.70633 1.71814 1.73628C1.56009 1.81846 1.43174 1.94943 1.3512 2.11071C1.32185 2.16949 1.29311 2.26237 1.27686 2.46537C1.26008 2.675 1.25965 2.94782 1.25965 3.35728V11.643C1.25965 12.0525 1.26009 12.325 1.27686 12.5344C1.2931 12.7371 1.32181 12.8298 1.3512 12.8887C1.43205 13.0506 1.56069 13.182 1.71814 13.2639C1.77562 13.2938 1.86647 13.323 2.06505 13.3396C2.27013 13.3567 2.53698 13.3571 2.93749 13.3571H2.97795C3.25074 11.3395 4.94737 9.78571 6.99965 9.78571C9.05193 9.78571 10.7486 11.3395 11.0213 13.3571H11.0618C11.4623 13.3571 11.729 13.3567 11.9339 13.3396C12.1323 13.323 12.223 13.2938 12.2806 13.2639C12.4386 13.1817 12.5677 13.05 12.6482 12.8887C12.6776 12.83 12.7062 12.7374 12.7225 12.535C12.7392 12.3259 12.7396 12.0538 12.7396 11.6451V3.35494C12.7396 2.94626 12.7392 2.67396 12.7225 2.46469C12.7062 2.26207 12.6775 2.16936 12.6482 2.11071C12.568 1.95004 12.4393 1.81877 12.2806 1.73628C12.2229 1.70628 12.132 1.67699 11.9334 1.66042C11.7282 1.6433 11.4611 1.64286 11.0598 1.64286H2.93979C2.53851 1.64286 2.27115 1.6433 2.06571 1.66042ZM9.88638 13.3571C9.6249 11.9736 8.43187 10.9286 6.99965 10.9286C5.56743 10.9286 4.3744 11.9736 4.11292 13.3571H9.88638ZM6.99965 4.5C6.14913 4.5 5.45965 5.20355 5.45965 6.07143C5.45965 6.93931 6.14913 7.64286 6.99965 7.64286C7.85017 7.64286 8.53965 6.93931 8.53965 6.07143C8.53965 5.20355 7.85017 4.5 6.99965 4.5ZM4.33965 6.07143C4.33965 4.57237 5.53057 3.35714 6.99965 3.35714C8.46873 3.35714 9.65965 4.57237 9.65965 6.07143C9.65965 7.57049 8.46873 8.78572 6.99965 8.78572C5.53057 8.78572 4.33965 7.57049 4.33965 6.07143Z" fill="white"/>
</svg>
