<svg width="16" height="17" viewBox="0 0 16 17" fill="none" xmlns="http://www.w3.org/2000/svg">
<path d="M2.4002 16.6787C2.0802 16.6787 1.8002 16.5587 1.5602 16.3187C1.3202 16.0787 1.2002 15.7987 1.2002 15.4787V4.01871C1.2002 3.68734 1.46882 3.41871 1.8002 3.41871C2.13157 3.41871 2.4002 3.68734 2.4002 4.01871V15.4787H11.2802C11.6116 15.4787 11.8802 15.7473 11.8802 16.0787C11.8802 16.4101 11.6116 16.6787 11.2802 16.6787H2.4002ZM4.8002 14.2787C4.4802 14.2787 4.2002 14.1587 3.9602 13.9187C3.7202 13.6787 3.6002 13.3987 3.6002 13.0787V1.87871C3.6002 1.55871 3.7202 1.27871 3.9602 1.03871C4.2002 0.798711 4.4802 0.678711 4.8002 0.678711H13.6002C13.9202 0.678711 14.2002 0.798711 14.4402 1.03871C14.6802 1.27871 14.8002 1.55871 14.8002 1.87871V13.0787C14.8002 13.3987 14.6802 13.6787 14.4402 13.9187C14.2002 14.1587 13.9202 14.2787 13.6002 14.2787H4.8002ZM4.8002 13.0787H13.6002V1.87871H4.8002V13.0787Z" fill="#34317D"/>
</svg>
