<svg width="13" height="12" viewBox="0 0 13 12" fill="none" xmlns="http://www.w3.org/2000/svg">
<path fill-rule="evenodd" clip-rule="evenodd" 
      d="M5.7521 0.7479C5.7521 0.334847 6.08695 0 6.5 0C6.91305 0 7.2479 0.334846 7.2479 0.747899V5.2521H11.7521C12.1652 5.2521 12.5 5.58695 12.5 6C12.5 6.41305 12.1652 6.7479 11.7521 6.7479H7.2479V11.2521C7.2479 11.6652 6.91305 12 6.5 12C6.08695 12 5.7521 11.6652 5.7521 11.2521V6.7479H1.2479C0.834847 6.7479 0.5 6.41305 0.5 6C0.5 5.58695 0.834846 5.2521 1.2479 5.2521H5.7521V0.7479Z" 
      fill="white"
      stroke="white" 
      stroke-width="1"/>
</svg>