<svg width="16" height="17" viewBox="0 0 16 17" fill="none" xmlns="http://www.w3.org/2000/svg">
<g clip-path="url(#clip0_6609_11028)">
<path fill-rule="evenodd" clip-rule="evenodd" d="M1.33757 8.02565H4.09388C4.16334 6.18161 4.5249 4.49956 5.09431 3.21841C5.21014 2.95778 5.33629 2.7099 5.47269 2.47836C3.22074 3.39721 1.58141 5.50727 1.33757 8.02565ZM8 0.678711C3.58172 0.678711 0 4.26043 0 8.67871C0 13.097 3.58172 16.6787 8 16.6787C12.4183 16.6787 16 13.097 16 8.67871C16 4.26043 12.4183 0.678711 8 0.678711ZM8 1.98483C7.76165 1.98483 7.48541 2.0908 7.17921 2.38221C6.86964 2.67682 6.56114 3.13399 6.28786 3.74887C5.80347 4.83874 5.46995 6.33361 5.40099 8.02565H10.599C10.5301 6.33361 10.1965 4.83874 9.71215 3.74887C9.43886 3.13399 9.13037 2.67682 8.8208 2.38221C8.51459 2.0908 8.23835 1.98483 8 1.98483ZM11.9061 8.02565C11.8367 6.18161 11.4751 4.49956 10.9057 3.21841C10.7899 2.95778 10.6637 2.7099 10.5273 2.47836C12.7793 3.39721 14.4186 5.50726 14.6624 8.02565H11.9061ZM10.599 9.33177H5.40099C5.46995 11.0238 5.80347 12.5187 6.28786 13.6085C6.56114 14.2234 6.86964 14.6806 7.17921 14.9752C7.48541 15.2666 7.76165 15.3726 8 15.3726C8.23835 15.3726 8.51459 15.2666 8.8208 14.9752C9.13037 14.6806 9.43886 14.2234 9.71215 13.6085C10.1965 12.5187 10.5301 11.0238 10.599 9.33177ZM10.5273 14.8791C10.6637 14.6475 10.7899 14.3996 10.9057 14.139C11.4751 12.8579 11.8367 11.1758 11.9061 9.33177H14.6624C14.4186 11.8502 12.7793 13.9602 10.5273 14.8791ZM5.4727 14.8791C5.33629 14.6475 5.21014 14.3996 5.09431 14.139C4.5249 12.8579 4.16334 11.1758 4.09388 9.33177H1.33757C1.58141 11.8502 3.22074 13.9602 5.4727 14.8791Z" fill="#34317D"/>
</g>
<defs>
<clipPath id="clip0_6609_11028">
<rect width="16" height="16" fill="white" transform="translate(0 0.678711)"/>
</clipPath>
</defs>
</svg>
