<svg width="25" height="25" viewBox="0 0 15 14" fill="none" xmlns="http://www.w3.org/2000/svg">
  <path fill-rule="evenodd" clip-rule="evenodd" d="M3.44002 3.40741e-07H11.605C11.9779 -8.21678e-06 12.2911 -1.54115e-05 12.5474 0.0213638C12.8154 0.0437229 13.07 0.0922812 13.3118 0.217988C13.68 0.409419 13.9807 0.71492 14.1689 1.09186C14.292 1.3385 14.3396 1.59836 14.3614 1.87161C14.3824 2.13297 14.3824 2.45224 14.3824 2.83196V11.168C14.3824 11.5477 14.3824 11.8669 14.3614 12.1281C14.3395 12.4013 14.292 12.661 14.1689 12.9076C13.981 13.2839 13.6806 13.5904 13.3118 13.7822C13.0701 13.9078 12.8157 13.9563 12.5479 13.9787C12.2919 14 11.9791 14 11.607 14H3.43768C3.06555 14 2.75266 14 2.49653 13.9787C2.22875 13.9563 1.97408 13.9078 1.73238 13.7822C1.36298 13.5901 1.06358 13.2833 0.875982 12.9076C0.752789 12.6609 0.705202 12.4011 0.68329 12.1276C0.662338 11.866 0.662345 11.5464 0.662354 11.166V2.83435C0.662346 2.45384 0.662338 2.13404 0.683287 1.87233C0.705185 1.59875 0.752741 1.33867 0.875981 1.09186C1.06389 0.715537 1.36358 0.409734 1.73238 0.217988C1.97425 0.092232 2.22913 0.043706 2.49724 0.0213604C2.75371 -1.53281e-05 3.06711 -8.17421e-06 3.44002 3.40741e-07ZM2.58842 1.16042C2.38947 1.17701 2.29845 1.20633 2.24085 1.23628C2.08279 1.31846 1.95444 1.44943 1.87391 1.61071C1.84456 1.66949 1.81582 1.76237 1.79957 1.96537C1.78279 2.175 1.78235 2.44782 1.78235 2.85728V11.143C1.78235 11.5525 1.78279 11.825 1.79957 12.0344C1.8158 12.2371 1.84451 12.3298 1.87391 12.3887C1.95475 12.5506 2.08339 12.682 2.24085 12.7639C2.29833 12.7938 2.38918 12.823 2.58775 12.8396C2.79284 12.8567 3.05969 12.8571 3.46019 12.8571H11.5845C13.6368 12.8571 11.544 12.8571 11.544 12.8571H11.5845C11.985 12.8571 12.2517 12.8567 12.4566 12.8396C12.655 12.8231 12.7458 12.7938 12.8033 12.7639C12.9614 12.6817 13.0904 12.55 13.1709 12.3887C13.2003 12.33 13.2289 12.2374 13.2452 12.035C13.2619 11.8259 13.2624 11.5538 13.2624 11.1451V2.85494C13.2624 2.44626 13.2619 2.17396 13.2452 1.96469C13.2289 1.76207 13.2002 1.66936 13.1709 1.61071C13.0907 1.45004 12.962 1.31877 12.8033 1.23628C12.7456 1.20628 12.6547 1.17699 12.4561 1.16042C12.2509 1.1433 11.9838 1.14286 11.5825 1.14286H3.46249C3.06122 1.14286 2.79386 1.1433 2.58842 1.16042Z" fill="white"/>
  <path fill-rule="evenodd" clip-rule="evenodd" d="M7.82558 11.243C7.66373 11.401 7.46316 11.4799 7.23278 11.4799C7.00251 11.4799 6.80189 11.4013 6.63973 11.2438C6.47731 11.086 6.39489 10.8889 6.39489 10.6613C6.39489 10.4338 6.47704 10.2366 6.63896 10.0786C6.8008 9.92054 7.00137 9.84163 7.23175 9.84163C7.46202 9.84163 7.66265 9.92028 7.82481 10.0778C7.98723 10.2356 8.06965 10.4326 8.06965 10.6603C8.06965 10.8878 7.9875 11.0849 7.82558 11.243ZM7.98011 7.8575C7.92813 7.95622 7.88738 8.07135 7.85909 8.2042C7.78936 8.5317 7.52284 8.83482 7.14968 8.83482C6.78972 8.83482 6.47021 8.53836 6.51751 8.15575C6.54682 7.91868 6.59735 7.70563 6.67057 7.51797C6.79878 7.1894 7.10287 6.81428 7.55908 6.39395C7.87314 6.09982 8.08893 5.85081 8.2139 5.64612C8.33631 5.44564 8.39526 5.24186 8.39526 5.03274C8.39526 4.73317 8.29595 4.51204 8.10556 4.35169C7.91163 4.18835 7.63825 4.09865 7.26897 4.09865C6.93001 4.09865 6.6399 4.17918 6.39347 4.33593C6.262 4.41955 6.1427 4.52422 6.03558 4.65075C5.82662 4.89758 5.47318 5.05529 5.13749 4.91959C4.79431 4.78086 4.59176 4.36497 4.81826 4.02169C5.01907 3.71735 5.27424 3.46352 5.58272 3.2608C6.05385 2.95118 6.62121 2.79993 7.27773 2.79993C8.00638 2.79993 8.60247 2.99163 9.05032 3.38928C9.50043 3.78895 9.72133 4.32974 9.72133 4.99525C9.72133 5.35212 9.63602 5.69306 9.46679 6.01635C9.29785 6.33907 9.00287 6.70124 8.59111 7.10223C8.29361 7.39196 8.09275 7.64359 7.98011 7.8575Z" fill="white"/>
</svg>