<svg xmlns="http://www.w3.org/2000/svg" width="12" height="12" viewBox="0 0 12 12" fill="none">
  <path fill-rule="evenodd" clip-rule="evenodd" d="M6.25463 1.01564C6.08863 0.967577 5.91132 0.967577 5.74532 1.01564C5.6774 1.0353 5.59367 1.07551 5.45286 1.17859C5.30697 1.28539 5.13078 1.43588 4.86838 1.66066L1.56116 4.49379C1.26522 4.7473 1.18563 4.82088 1.13046 4.90045C1.07391 4.98201 1.0326 5.07108 1.00782 5.16393C0.983504 5.25504 0.979635 5.3594 0.979635 5.74587L0.979635 9.48701C0.979635 9.80806 0.979912 10.0238 0.991557 10.1908C1.00288 10.3533 1.02323 10.4332 1.04578 10.4865C1.13427 10.6956 1.30523 10.8649 1.52411 10.9536C1.58206 10.9771 1.6671 10.9975 1.8349 11.0087C2.0069 11.0202 2.2285 11.0204 2.55599 11.0204C2.88347 11.0204 3.10517 11.0202 3.27727 11.0087C3.4452 10.9974 3.53031 10.9771 3.58822 10.9536C3.8071 10.8649 3.97799 10.6957 4.06648 10.4865C4.08904 10.4332 4.1094 10.3533 4.12074 10.1908C4.1324 10.0237 4.1327 9.80796 4.1327 9.48695V8.81262C4.1327 7.78754 4.97857 6.97416 6.00004 6.97416C7.02151 6.97416 7.86739 7.78754 7.86739 8.81262V9.48695C7.86739 9.80799 7.86767 10.0237 7.87931 10.1908C7.89064 10.3533 7.91099 10.4332 7.93354 10.4865C8.02201 10.6957 8.19294 10.8649 8.41187 10.9536C8.46981 10.9771 8.55486 10.9975 8.72265 11.0087C8.89465 11.0202 9.11625 11.0204 9.44374 11.0204C9.77123 11.0204 9.99293 11.0202 10.165 11.0087C10.333 10.9974 10.4181 10.9771 10.476 10.9536C10.6948 10.8649 10.8657 10.6957 10.9542 10.4865C10.9768 10.4331 10.9972 10.3532 11.0085 10.1908C11.0202 10.0237 11.0205 9.80803 11.0205 9.48701V5.74587C11.0205 5.36015 11.0163 5.25521 10.992 5.16393C10.9669 5.07014 10.9258 4.9812 10.8698 4.90045C10.8147 4.8209 10.7351 4.74735 10.4391 4.49378L7.13293 1.6616C6.87017 1.4365 6.69369 1.28579 6.54759 1.17885C6.40656 1.07562 6.32267 1.03534 6.25463 1.01564ZM5.47289 0.0746889C5.81685 -0.0248963 6.18309 -0.0248963 6.52706 0.0746888C6.74839 0.13877 6.93774 0.250455 7.12618 0.38838C7.30636 0.520265 7.51149 0.695993 7.75717 0.906462L11.0764 3.74984C11.0886 3.76036 11.1008 3.77075 11.1128 3.78103C11.3529 3.98655 11.538 4.14494 11.6748 4.34228C11.795 4.51566 11.8841 4.70794 11.9384 4.91132C12.0003 5.14338 12.0002 5.38586 12.0001 5.69706C12.0001 5.71315 12 5.72941 12 5.74587V9.50284C12 9.80317 12.0001 10.0535 11.9857 10.259C11.9708 10.4726 11.9387 10.6737 11.8564 10.8682C11.6653 11.3199 11.3003 11.6764 10.8441 11.8614C10.6489 11.9406 10.4467 11.9716 10.2303 11.9861C10.0217 12 9.7671 12 9.46002 12H9.42747C9.12039 12 8.86591 12 8.65736 11.9861C8.44094 11.9716 8.23894 11.9406 8.04373 11.8614C7.58758 11.6765 7.22252 11.32 7.03137 10.8682C6.94906 10.6737 6.91698 10.4726 6.90209 10.2589C6.88779 10.0537 6.88779 9.80367 6.8878 9.50383V8.81262C6.8878 8.34802 6.50018 7.95376 6.00004 7.95376C5.49991 7.95376 5.11229 8.34802 5.11229 8.81262V9.50276C5.11229 9.80311 5.1123 10.0535 5.09796 10.259C5.08305 10.4727 5.05094 10.6737 4.96865 10.8682C4.77751 11.32 4.41255 11.6764 3.95635 11.8614C3.76111 11.9406 3.55899 11.9716 3.34253 11.9861C3.13391 12 2.87935 12 2.57227 12H2.53971C2.23264 12 1.97815 12 1.76961 11.9861C1.55318 11.9716 1.35119 11.9406 1.15598 11.8614C0.699791 11.6764 0.334752 11.3199 0.143615 10.8682C0.061312 10.6736 0.0292283 10.4726 0.0143365 10.2589C3.42609e-05 10.0537 3.84205e-05 9.80373 4.3347e-05 9.50389L4.35659e-05 5.74587C4.35659e-05 5.72793 3.23992e-05 5.71021 2.13784e-05 5.69271C-0.000172799 5.38422 -0.000324971 5.14243 0.06136 4.91132C0.115894 4.70699 0.20579 4.51485 0.325445 4.34228C0.462338 4.14485 0.647428 3.98644 0.887808 3.78071C0.899692 3.77054 0.911711 3.76025 0.923866 3.74984L4.24501 0.904786C4.4899 0.694996 4.69448 0.519737 4.87422 0.388155C5.06245 0.250366 5.25166 0.138742 5.47289 0.0746889Z" fill="#34317D"/>
</svg>