<svg width="10" height="10" viewBox="0 0 10 10" fill="none" xmlns="http://www.w3.org/2000/svg">
<path fill-rule="evenodd" clip-rule="evenodd" d="M6.0241 0.481989C6.0241 0.215827 6.23986 6.10352e-05 6.50602 6.10352e-05H9.51807C9.78423 6.10352e-05 10 0.215827 10 0.481989V3.49404C10 3.7602 9.78423 3.97596 9.51807 3.97596C9.25191 3.97596 9.03614 3.7602 9.03614 3.49404V1.64547L5.64198 5.03963C5.45378 5.22783 5.14864 5.22783 4.96043 5.03963C4.77223 4.85143 4.77223 4.54629 4.96043 4.35808L8.3546 0.963916H6.50602C6.23986 0.963916 6.0241 0.74815 6.0241 0.481989ZM2.39042 0.60247L3.49409 0.602471C3.76026 0.602471 3.97602 0.818237 3.97602 1.0844C3.97602 1.35056 3.76026 1.56633 3.49409 1.56633H2.40976C2.06443 1.56633 1.83434 1.5667 1.65754 1.58114C1.48633 1.59512 1.408 1.61986 1.35843 1.64512C1.22241 1.71442 1.11195 1.82488 1.04265 1.9609C1.01739 2.01047 0.992655 2.0888 0.978671 2.26001C0.96423 2.43681 0.963856 2.6669 0.963856 3.01223V7.59054C0.963856 7.93588 0.964231 8.16584 0.978669 8.34252C0.992646 8.51355 1.01736 8.59182 1.04265 8.64144C1.11209 8.77773 1.22268 8.88838 1.35843 8.95754C1.40789 8.98275 1.48608 9.00744 1.65697 9.02141C1.83346 9.03583 2.06311 9.03621 2.40778 9.03621H6.98981C7.33449 9.03621 7.564 9.03583 7.74035 9.02141C7.91105 9.00745 7.98915 8.98277 8.03868 8.95754C8.1748 8.88819 8.28582 8.77719 8.35507 8.64126C8.3803 8.59176 8.40498 8.51363 8.41894 8.34289C8.43336 8.1665 8.43373 7.93696 8.43373 7.59228V6.50608C8.43373 6.23992 8.6495 6.02416 8.91566 6.02416C9.18182 6.02416 9.39759 6.23992 9.39759 6.50608V7.61163C9.3976 7.93188 9.3976 8.20108 9.37959 8.42143C9.36075 8.65184 9.31984 8.87088 9.21387 9.07885C9.05211 9.39633 8.79354 9.65468 8.47626 9.81635C8.26831 9.9223 8.04931 9.96322 7.8189 9.98206C7.59858 10.0001 7.3294 10.0001 7.00916 10.0001H2.38846C2.06819 10.0001 1.7989 10.0001 1.57847 9.98206C1.34802 9.96323 1.12885 9.92233 0.920847 9.81635C0.603193 9.65449 0.34542 9.39613 0.183845 9.07902C0.0778106 8.87092 0.036869 8.65172 0.0180165 8.42103C-1.29645e-05 8.20041 -6.896e-06 7.9308 2.85278e-07 7.6099V2.99289C-6.896e-06 2.67197 -1.29286e-05 2.40226 0.0180148 2.18155C0.0368605 1.95081 0.077786 1.73147 0.183845 1.52332C0.345559 1.20593 0.603465 0.948029 0.920847 0.786315C1.129 0.680256 1.34834 0.639331 1.57908 0.620485C1.79979 0.602457 2.0695 0.602463 2.39042 0.60247Z" fill="#696A6F"/>
</svg>
