<svg width="13" height="12" viewBox="0 0 13 12" fill="none" xmlns="http://www.w3.org/2000/svg">
<path fill-rule="evenodd" clip-rule="evenodd" d="M7.72892 0.578313C7.72892 0.25892 7.98784 0 8.30723 0H11.9217C12.2411 0 12.5 0.25892 12.5 0.578313V4.19277C12.5 4.51216 12.2411 4.77108 11.9217 4.77108C11.6023 4.77108 11.3434 4.51216 11.3434 4.19277V1.97449L7.27038 6.04748C7.04453 6.27333 6.67836 6.27333 6.45252 6.04748C6.22667 5.82164 6.22667 5.45547 6.45252 5.22963L10.5255 1.15663H8.30723C7.98784 1.15663 7.72892 0.897707 7.72892 0.578313ZM3.3685 0.722891L4.69291 0.722892C5.01231 0.722892 5.27123 0.981811 5.27123 1.3012C5.27123 1.6206 5.01231 1.87952 4.69291 1.87952H3.39171C2.97731 1.87952 2.70121 1.87997 2.48905 1.8973C2.2836 1.91408 2.1896 1.94376 2.13011 1.97407C1.96689 2.05723 1.83434 2.18978 1.75118 2.353C1.72087 2.41249 1.69119 2.50649 1.67441 2.71194C1.65708 2.9241 1.65663 3.2002 1.65663 3.6146V9.10858C1.65663 9.52298 1.65708 9.79894 1.6744 10.011C1.69118 10.2162 1.72084 10.3101 1.75118 10.3697C1.83451 10.5332 1.96721 10.666 2.13011 10.749C2.18947 10.7792 2.2833 10.8089 2.48836 10.8256C2.70015 10.8429 2.97573 10.8434 3.38933 10.8434H8.88778C9.30139 10.8434 9.5768 10.8429 9.78842 10.8256C9.99326 10.8089 10.087 10.7793 10.1464 10.749C10.3098 10.6658 10.443 10.5325 10.5261 10.3694C10.5564 10.31 10.586 10.2163 10.6027 10.0114C10.62 9.79973 10.6205 9.52428 10.6205 9.11067V7.80723C10.6205 7.48784 10.8794 7.22892 11.1988 7.22892C11.5182 7.22892 11.7771 7.48784 11.7771 7.80723V9.13388C11.7771 9.51818 11.7771 9.84122 11.7555 10.1056C11.7329 10.3821 11.6838 10.645 11.5567 10.8945C11.3625 11.2755 11.0522 11.5855 10.6715 11.7795C10.422 11.9067 10.1592 11.9558 9.88269 11.9784C9.6183 12 9.29528 12 8.91099 12H3.36615C2.98183 12 2.65868 12 2.39416 11.9784C2.11762 11.9558 1.85462 11.9067 1.60502 11.7795C1.22383 11.5853 0.914504 11.2753 0.720614 10.8948C0.593373 10.645 0.544243 10.382 0.52162 10.1052C0.499984 9.84042 0.499992 9.51688 0.5 9.13181V3.59139C0.499992 3.20629 0.499984 2.88264 0.521618 2.61778C0.544233 2.3409 0.593343 2.07769 0.720614 1.82791C0.914671 1.44705 1.22416 1.13756 1.60502 0.943505C1.8548 0.816234 2.11801 0.767124 2.39489 0.744509C2.65975 0.722875 2.9834 0.722883 3.3685 0.722891Z" fill="#34317D"/>
</svg>
