<svg width="12" height="11" viewBox="0 0 12 11" fill="none" xmlns="http://www.w3.org/2000/svg">
  <path fill-rule="evenodd" clip-rule="evenodd" d="M3.55102 1.17954C2.80713 1.17954 2.20408 1.78259 2.20408 2.52648C2.20408 2.92535 2.37684 3.28323 2.65318 3.53056C2.85475 3.71097 2.8719 4.02061 2.6915 4.22218C2.51109 4.42374 2.20144 4.4409 1.99988 4.26049C1.52469 3.83519 1.22449 3.21557 1.22449 2.52648C1.22449 1.24157 2.26611 0.199951 3.55102 0.199951C4.14657 0.199951 4.69088 0.424366 5.10216 0.792473C5.30373 0.972878 5.32088 1.28252 5.14047 1.48409C4.96007 1.68565 4.65042 1.70281 4.44886 1.5224C4.21024 1.30883 3.89631 1.17954 3.55102 1.17954ZM6.89784 0.792473C7.30912 0.424366 7.85343 0.199951 8.44898 0.199951C9.73389 0.199951 10.7755 1.24157 10.7755 2.52648C10.7755 3.21557 10.4753 3.83519 10.0001 4.26049C9.79856 4.4409 9.48891 4.42374 9.30851 4.22218C9.1281 4.02061 9.14526 3.71097 9.34682 3.53056C9.62316 3.28323 9.79592 2.92535 9.79592 2.52648C9.79592 1.78259 9.19287 1.17954 8.44898 1.17954C8.10369 1.17954 7.78977 1.30883 7.55114 1.5224C7.34958 1.70281 7.03993 1.68565 6.85953 1.48409C6.67912 1.28252 6.69627 0.972878 6.89784 0.792473ZM6 3.01628C5.25611 3.01628 4.65306 3.61932 4.65306 4.36322C4.65306 5.10711 5.25611 5.71016 6 5.71016C6.7439 5.71016 7.34694 5.10711 7.34694 4.36322C7.34694 3.61932 6.7439 3.01628 6 3.01628ZM3.67347 4.36322C3.67347 3.07831 4.71509 2.03669 6 2.03669C7.28491 2.03669 8.32653 3.07831 8.32653 4.36322C8.32653 5.64812 7.28491 6.68975 6 6.68975C4.71509 6.68975 3.67347 5.64812 3.67347 4.36322ZM2.80032 6.22881C2.86891 6.49047 2.7124 6.7582 2.45073 6.8268C1.96671 6.95369 1.5832 7.15552 1.33024 7.383C1.07861 7.60928 0.979592 7.83597 0.979592 8.03692C0.979592 8.30742 0.760303 8.52671 0.489796 8.52671C0.219289 8.52671 0 8.30742 0 8.03692C0 7.48468 0.278767 7.01113 0.675215 6.65461C1.07033 6.2993 1.60518 6.03577 2.20233 5.87923C2.46399 5.81063 2.73172 5.96714 2.80032 6.22881ZM9.19968 6.22881C9.26828 5.96714 9.53601 5.81063 9.79767 5.87923C10.3948 6.03577 10.9297 6.2993 11.3248 6.65461C11.7212 7.01113 12 7.48468 12 8.03692C12 8.30742 11.7807 8.52671 11.5102 8.52671C11.2397 8.52671 11.0204 8.30742 11.0204 8.03692C11.0204 7.83597 10.9214 7.60928 10.6698 7.383C10.4168 7.15552 10.0333 6.95369 9.54927 6.8268C9.2876 6.7582 9.13109 6.49047 9.19968 6.22881ZM3.58339 8.15466C4.22559 7.76934 5.08116 7.54689 6 7.54689C6.91884 7.54689 7.77441 7.76934 8.41661 8.15466C9.04906 8.53413 9.55102 9.12658 9.55102 9.87342C9.55102 10.1439 9.33173 10.3632 9.06123 10.3632C8.79072 10.3632 8.57143 10.1439 8.57143 9.87342C8.57143 9.60586 8.38811 9.27995 7.91262 8.99465C7.44687 8.7152 6.77183 8.52648 6 8.52648C5.22818 8.52648 4.55313 8.7152 4.08739 8.99465C3.61189 9.27995 3.42857 9.60586 3.42857 9.87342C3.42857 10.1439 3.20928 10.3632 2.93878 10.3632C2.66827 10.3632 2.44898 10.1439 2.44898 9.87342C2.44898 9.12658 2.95094 8.53413 3.58339 8.15466Z" fill="#333333"/>
</svg>