<svg width="20" height="23" viewBox="0 0 20 23" fill="none" xmlns="http://www.w3.org/2000/svg">
<path opacity="0.8" fill-rule="evenodd" clip-rule="evenodd" d="M19.183 5.51683L19.1822 5.51637L10.9906 0.750969L10.9895 0.750344C10.4314 0.41879 9.712 0.417854 9.16257 0.739874L0.851385 5.47541L0.850534 5.47589C0.31552 5.7752 0 6.30876 0 6.88616V16.8035C0 17.3782 0.302628 17.9009 0.805076 18.2012L5.11163 20.7803C5.31411 20.9065 5.58347 20.8397 5.70914 20.6602C5.8444 20.4671 5.77439 20.2086 5.58497 20.0884L5.58235 20.0868L1.26079 17.5047L1.26042 17.5045C1.00695 17.3537 0.862273 17.098 0.862273 16.8035V6.88616C0.862273 6.59846 1.02092 6.33144 1.28756 6.17738L1.28809 6.17707L9.60251 1.4397L9.60387 1.43891C9.87282 1.28077 10.2442 1.2796 10.525 1.44763L10.5262 1.44834L18.7307 6.22499L18.7311 6.22522C18.9945 6.37718 19.1468 6.64245 19.1468 6.9343V16.6591C19.1468 16.9377 18.9972 17.1985 18.7443 17.3627L11.8096 21.5488L11.8094 21.5489C11.5226 21.7204 11.1871 21.7334 10.8995 21.5813C10.6064 21.4263 10.4407 21.1613 10.4407 20.8475V17.3859C10.4927 17.3934 10.5447 17.3969 10.5962 17.3969C10.7295 17.3969 10.8449 17.3711 10.9553 17.3396L10.9651 17.3368L10.9747 17.3331C13.0999 16.522 14.5691 16.9544 15.2382 17.2683C15.5264 17.4052 15.8532 17.4033 16.1467 17.2697L16.1485 17.2689L16.1503 17.268C16.4333 17.1333 16.6315 16.896 16.6968 16.5976L16.6969 16.5972L18.427 8.61266L18.4275 8.61013C18.4788 8.34166 18.4158 8.05466 18.2188 7.82785C18.0353 7.60512 17.7494 7.4686 17.4477 7.46743C17.1791 7.45932 16.8493 7.46491 16.4589 7.48928V6.04848C16.4589 5.71277 16.1706 5.44544 15.8153 5.44544H15.8139L15.8124 5.44546C14.2502 5.4644 11.4509 5.94146 10.0119 8.87644C8.57438 5.93287 5.77068 5.4548 4.20677 5.43583L4.20531 5.43581H4.20385C3.855 5.43581 3.57043 5.70663 3.57043 6.03886V7.46067C3.17034 7.43596 2.83669 7.43036 2.55815 7.43864L2.55676 7.43868L2.55536 7.43874C2.26043 7.45095 1.98704 7.5742 1.79276 7.79615L1.79029 7.79897L1.78792 7.80187C1.60738 8.02284 1.52955 8.30624 1.58125 8.58923L1.58185 8.59249L3.30208 16.5684L3.30215 16.5687C3.36746 16.8671 3.5656 17.1044 3.84867 17.2391C4.13541 17.3756 4.47393 17.3757 4.76074 17.2394C5.42938 16.9258 6.88732 16.4935 9.02093 17.303C9.15377 17.3581 9.29075 17.368 9.40272 17.368C9.45448 17.368 9.50669 17.3636 9.55822 17.3555V20.8378C9.55822 21.4474 9.89737 21.9915 10.4645 22.2895C10.7332 22.4338 11.0248 22.5 11.3144 22.5C11.6414 22.5 11.9672 22.411 12.2565 22.2348L12.257 22.2346L19.1959 18.046L19.1971 18.0452C19.6953 17.7364 19.9989 17.216 19.9989 16.6494V6.9287C20.0208 6.34472 19.7003 5.82327 19.183 5.51683ZM15.8425 16.421C15.8365 16.4549 15.8128 16.4877 15.7674 16.5104C15.7143 16.5321 15.6574 16.5281 15.6243 16.5123L15.6238 16.512L15.6233 16.5118C14.7963 16.1233 13.0802 15.6312 10.6646 16.5524C10.6087 16.5725 10.5588 16.5659 10.5083 16.531L10.5045 16.5284L10.5006 16.5259C10.4915 16.5201 10.4795 16.5102 10.47 16.4955C10.4616 16.4826 10.4508 16.4595 10.4508 16.4184V9.92876C10.4508 9.87663 10.4822 9.82718 10.5448 9.80168L10.5452 9.80152C13.7332 8.49404 16.0086 8.26911 17.1808 8.26911H17.4336C17.4714 8.26911 17.5069 8.28396 17.5362 8.31981C17.5697 8.36081 17.5799 8.40393 17.573 8.4435L15.8432 16.4169L15.8425 16.421ZM9.57845 16.428C9.57845 16.4671 9.559 16.5068 9.51813 16.5356C9.4642 16.5669 9.41024 16.5724 9.35458 16.5524C6.94278 15.6326 5.2282 16.1218 4.3998 16.51C4.34955 16.5309 4.29816 16.5306 4.24796 16.5088C4.21068 16.4927 4.1841 16.4596 4.17614 16.4179L4.17568 16.4155L2.45633 8.44361C2.44933 8.40401 2.45953 8.36085 2.49306 8.31981C2.52234 8.28397 2.55793 8.26911 2.59564 8.26911H2.59873L2.60182 8.26903C3.69182 8.24099 6.05588 8.3892 9.49413 9.80147L9.49439 9.80158L9.49465 9.80168C9.55715 9.82718 9.58856 9.87663 9.58856 9.92876V13.6682H9.57845V16.428Z" fill="white"/>
</svg>
