<svg width="12" height="12" viewBox="0 0 12 12" fill="none" xmlns="http://www.w3.org/2000/svg">
  <path fill-rule="evenodd" clip-rule="evenodd" d="M2.50097 2.92064e-07H9.49953C9.81913 -7.04296e-06 10.0876 -1.32103e-05 10.3073 0.0183118C10.537 0.0374768 10.7552 0.0790982 10.9625 0.186846C11.2781 0.350931 11.5358 0.612789 11.6971 0.935882C11.8027 1.14728 11.8434 1.37002 11.8622 1.60424C11.8801 1.82826 11.8801 2.10192 11.8801 2.4274V9.5726C11.8801 9.89806 11.8801 10.1716 11.8622 10.3955C11.8434 10.6297 11.8027 10.8523 11.6971 11.0636C11.5361 11.3862 11.2786 11.6489 10.9625 11.8133C10.7554 11.921 10.5372 11.9626 10.3077 11.9817C10.0883 12 9.82022 12 9.50127 12H2.49897C2.18 12 1.91181 12 1.69227 11.9817C1.46274 11.9626 1.24446 11.921 1.03728 11.8133C0.72065 11.6487 0.464029 11.3857 0.303227 11.0636C0.197634 10.8522 0.156844 10.6295 0.138063 10.3951C0.120104 10.1709 0.12011 9.89695 0.120117 9.57083V2.42944C0.12011 2.10329 0.120104 1.82918 0.13806 1.60486C0.15683 1.37036 0.197592 1.14743 0.303227 0.935881C0.464294 0.613317 0.721168 0.351201 1.03728 0.186847C1.2446 0.079056 1.46307 0.0374623 1.69288 0.0183089C1.91271 -1.31374e-05 2.18134 -7.00646e-06 2.50097 2.92064e-07ZM1.77103 0.99465C1.60051 1.00886 1.52249 1.034 1.47311 1.05967C1.33763 1.13011 1.22762 1.24236 1.15859 1.38061C1.13344 1.43099 1.1088 1.5106 1.09487 1.6846C1.08049 1.86429 1.08012 2.09813 1.08012 2.4491V9.55114C1.08012 9.90212 1.08049 10.1358 1.09487 10.3152C1.10879 10.4889 1.13339 10.5684 1.15859 10.6189C1.22789 10.7577 1.33815 10.8703 1.47311 10.9405C1.52238 10.9661 1.60025 10.9912 1.77046 11.0054C1.94624 11.02 2.17497 11.0204 2.51826 11.0204H2.55295C2.78677 9.29102 4.24102 7.95918 6.00012 7.95918C7.75921 7.95918 9.21347 9.29102 9.44729 11.0204H9.48197C9.82527 11.0204 10.0539 11.02 10.2295 11.0054C10.3995 10.9912 10.4773 10.9661 10.5266 10.9405C10.6621 10.87 10.7727 10.7571 10.8418 10.6189C10.8669 10.5686 10.8915 10.4892 10.9054 10.3157C10.9197 10.1365 10.9201 9.90322 10.9201 9.55291V2.44709C10.9201 2.09679 10.9197 1.8634 10.9054 1.68402C10.8915 1.51034 10.8669 1.43088 10.8418 1.38061C10.773 1.24289 10.6626 1.13038 10.5266 1.05967C10.4772 1.03396 10.3993 1.00885 10.229 0.994647C10.0532 0.979974 9.8242 0.979592 9.48024 0.979592H2.52024C2.17629 0.979592 1.94712 0.979973 1.77103 0.99465ZM8.47446 11.0204C8.25033 9.83451 7.22774 8.93878 6.00012 8.93878C4.7725 8.93878 3.7499 9.83451 3.52578 11.0204H8.47446ZM6.00012 3.42857C5.2711 3.42857 4.68012 4.03162 4.68012 4.77551C4.68012 5.5194 5.2711 6.12245 6.00012 6.12245C6.72913 6.12245 7.32012 5.5194 7.32012 4.77551C7.32012 4.03162 6.72913 3.42857 6.00012 3.42857ZM3.72012 4.77551C3.72012 3.4906 4.74091 2.44898 6.00012 2.44898C7.25933 2.44898 8.28012 3.4906 8.28012 4.77551C8.28012 6.06042 7.25933 7.10204 6.00012 7.10204C4.74091 7.10204 3.72012 6.06042 3.72012 4.77551Z" fill="#333333"/>
</svg>