<svg width="12" height="12" viewBox="0 0 12 12" fill="none" xmlns="http://www.w3.org/2000/svg">
  <path fill-rule="evenodd" clip-rule="evenodd" d="M3.05536 10.8285L5.17772 9.48641C5.68103 9.16815 6.31789 9.16783 6.82151 9.48564L8.94955 10.8286L8.37177 8.23254C8.24793 7.67611 8.42472 7.08234 8.85664 6.69077L10.8277 4.90384L8.26521 4.66895C7.67011 4.6144 7.17826 4.22384 6.96274 3.6917L6.00175 1.31893L5.04601 3.68937C4.83097 4.22272 4.3385 4.61443 3.74236 4.66897L1.17234 4.90414L3.14369 6.6913C3.57491 7.08223 3.75186 7.67476 3.62913 8.23049L3.05536 10.8285ZM2.06248 11.1509C1.93101 11.7462 2.54783 12.2142 3.04744 11.8983L5.65873 10.2471C5.86854 10.1144 6.13128 10.1143 6.3412 10.2468L8.95885 11.8986C9.45895 12.2142 10.0755 11.745 9.94305 11.1497L9.25028 8.03702C9.19466 7.78712 9.27584 7.52554 9.46113 7.35756L11.771 5.26348C12.212 4.86367 11.9774 4.10545 11.3963 4.05218L8.34736 3.77271C8.104 3.7504 7.89228 3.58929 7.79692 3.35385L6.6093 0.421493C6.38149 -0.14099 5.61972 -0.140347 5.39277 0.42252L4.2113 3.35282C4.11615 3.58883 3.90413 3.75041 3.66035 3.77272L0.603839 4.0524C0.0225971 4.10558 -0.212066 4.86387 0.228982 5.26371L2.5392 7.35808C2.72419 7.52578 2.80543 7.78681 2.75031 8.0364L2.06248 11.1509Z" fill="#333333"/>
</svg>