<svg width="14" height="14" viewBox="0 0 14 14" fill="none" xmlns="http://www.w3.org/2000/svg">
<path fill-rule="evenodd" clip-rule="evenodd" d="M2.9178 3.40741e-07H11.0828C11.4557 -8.21678e-06 11.7689 -1.54115e-05 12.0251 0.0213638C12.2932 0.0437229 12.5478 0.0922812 12.7895 0.217988C13.1577 0.409419 13.4584 0.71492 13.6467 1.09186C13.7698 1.3385 13.8173 1.59836 13.8392 1.87161C13.8602 2.13297 13.8601 2.45224 13.8601 2.83196V11.168C13.8601 11.5477 13.8602 11.8669 13.8392 12.1281C13.8173 12.4013 13.7698 12.661 13.6467 12.9076C13.4587 13.2839 13.1583 13.5904 12.7895 13.7822C12.5479 13.9078 12.2934 13.9563 12.0257 13.9787C11.7697 14 11.4569 14 11.0848 14H2.91546C2.54334 14 2.23044 14 1.97432 13.9787C1.70653 13.9563 1.45186 13.9078 1.21016 13.7822C0.840758 13.5901 0.541368 13.2833 0.353765 12.9076C0.230573 12.6609 0.182985 12.4011 0.161073 12.1276C0.140122 11.866 0.140129 11.5464 0.140137 11.166V2.83435C0.140129 2.45384 0.140122 2.13404 0.16107 1.87233C0.182969 1.59875 0.230524 1.33867 0.353765 1.09186C0.541676 0.715537 0.841363 0.409734 1.21016 0.217988C1.45203 0.092232 1.70691 0.043706 1.97502 0.0213604C2.2315 -1.53281e-05 2.5449 -8.17421e-06 2.9178 3.40741e-07ZM2.0662 1.16042C1.86726 1.17701 1.77623 1.20633 1.71863 1.23628C1.56057 1.31846 1.43223 1.44943 1.35169 1.61071C1.32234 1.66949 1.2936 1.76237 1.27735 1.96537C1.26057 2.175 1.26014 2.44782 1.26014 2.85728V11.143C1.26014 11.5525 1.26057 11.825 1.27735 12.0344C1.29359 12.2371 1.32229 12.3298 1.35169 12.3887C1.43253 12.5506 1.56118 12.682 1.71863 12.7639C1.77611 12.7938 1.86696 12.823 2.06554 12.8396C2.27062 12.8567 2.53747 12.8571 2.93797 12.8571H11.0623C13.1146 12.8571 11.0218 12.8571 11.0218 12.8571H11.0623C11.4628 12.8571 11.7295 12.8567 11.9344 12.8396C12.1328 12.8231 12.2235 12.7938 12.2811 12.7639C12.4391 12.6817 12.5682 12.55 12.6487 12.3887C12.6781 12.33 12.7067 12.2374 12.7229 12.035C12.7397 11.8259 12.7401 11.5538 12.7401 11.1451V2.85494C12.7401 2.44626 12.7397 2.17396 12.7229 1.96469C12.7067 1.76207 12.678 1.66936 12.6487 1.61071C12.5685 1.45004 12.4397 1.31877 12.2811 1.23628C12.2234 1.20628 12.1325 1.17699 11.9339 1.16042C11.7287 1.1433 11.4616 1.14286 11.0603 1.14286H2.94027C2.539 1.14286 2.27164 1.1433 2.0662 1.16042Z" fill="white"/>
<path fill-rule="evenodd" clip-rule="evenodd" d="M10.102 3.85601C10.2423 3.71579 10.4265 3.6394 10.6245 3.6394C10.8227 3.6394 11.0068 3.71566 11.1469 3.85572C11.4345 4.14356 11.4344 4.61277 11.1468 4.90051L5.91079 10.144C5.77031 10.2845 5.5861 10.3607 5.38821 10.3607C5.19006 10.3607 5.00603 10.2844 4.86592 10.1443L2.85398 8.13236C2.71395 7.99237 2.6377 7.80834 2.6377 7.61013C2.6377 7.41196 2.7139 7.22795 2.85394 7.08789M2.85394 7.08789C2.99414 6.94774 3.17823 6.87147 3.37636 6.87147C3.57445 6.87147 3.75849 6.94771 3.89861 7.08787L5.38828 8.5774L10.102 3.85601" fill="white"/>
</svg>
