<svg width="14" height="14" viewBox="0 0 14 14" fill="none" xmlns="http://www.w3.org/2000/svg">
<path d="M13.5039 12.718L9.71228 8.92634C10.4467 8.01913 10.8889 6.86634 10.8889 5.61079C10.8889 2.70079 8.52117 0.333008 5.6112 0.333008C2.70123 0.333008 0.333496 2.70077 0.333496 5.61077C0.333496 8.52077 2.70126 10.8886 5.61123 10.8886C6.86676 10.8886 8.01954 10.4463 8.92674 9.71189L12.7184 13.5036C12.8267 13.6119 12.9689 13.6663 13.1111 13.6663C13.2534 13.6663 13.3956 13.6119 13.5039 13.5036C13.7211 13.2863 13.7211 12.9352 13.5039 12.718ZM5.61123 9.77743C3.31347 9.77743 1.4446 7.90855 1.4446 5.61077C1.4446 3.31298 3.31347 1.4441 5.61123 1.4441C7.90899 1.4441 9.77785 3.31298 9.77785 5.61077C9.77785 7.90855 7.90896 9.77743 5.61123 9.77743Z" fill="#818181"/>
</svg>
