<svg width="14" height="14" viewBox="0 0 14 14" fill="none" xmlns="http://www.w3.org/2000/svg">
<path d="M13.5039 12.7183L9.71228 8.92659C10.4467 8.01937 10.8889 6.86658 10.8889 5.61104C10.8889 2.70104 8.52117 0.333252 5.6112 0.333252C2.70123 0.333252 0.333496 2.70101 0.333496 5.61101C0.333496 8.52101 2.70126 10.8888 5.61123 10.8888C6.86676 10.8888 8.01954 10.4466 8.92674 9.71213L12.7184 13.5038C12.8267 13.6121 12.9689 13.6666 13.1111 13.6666C13.2534 13.6666 13.3956 13.6121 13.5039 13.5038C13.7211 13.2866 13.7211 12.9355 13.5039 12.7183ZM5.61123 9.77768C3.31347 9.77768 1.4446 7.9088 1.4446 5.61101C1.4446 3.31323 3.31347 1.44435 5.61123 1.44435C7.90899 1.44435 9.77785 3.31323 9.77785 5.61101C9.77785 7.9088 7.90896 9.77768 5.61123 9.77768Z" fill="#818181"/>
</svg>
