<svg width="14" height="14" viewBox="0 0 14 14" fill="none" xmlns="http://www.w3.org/2000/svg">
<path d="M13.4785 5.49565L13.4789 5.49684C13.5306 5.6448 13.4861 5.79643 13.366 5.89139L13.3649 5.89225L10.116 8.47571L9.83486 8.69923L9.95691 9.03698L11.3962 13.0202C11.3963 13.0204 11.3963 13.0205 11.3964 13.0207C11.4498 13.1694 11.4064 13.3214 11.2811 13.4202C11.2098 13.4755 11.1324 13.4993 11.0631 13.4993C10.9973 13.4993 10.9296 13.4808 10.8665 13.4387L10.8658 13.4382L7.27882 11.0544L7.00196 10.8704L6.72516 11.0545L3.14228 13.4375C3.14212 13.4377 3.14195 13.4378 3.14178 13.4379C3.00696 13.5267 2.84954 13.5196 2.72379 13.4208L2.72192 13.4194C2.59718 13.3224 2.55329 13.1721 2.60791 13.0204C2.60793 13.0203 2.60794 13.0203 2.60795 13.0203L4.04446 9.03668L4.1662 8.69908L3.8853 8.47571L0.636361 5.89225L0.635263 5.89138C0.512823 5.79458 0.469658 5.64582 0.521747 5.4991C0.576422 5.3451 0.705133 5.2561 0.859891 5.2561H4.56549H4.90738L5.03142 4.93751L6.67032 0.728192L6.67033 0.728194L6.67112 0.726136C6.72634 0.582446 6.84605 0.5 7.00218 0.5C7.15622 0.5 7.27796 0.583544 7.33375 0.727473L7.33403 0.728193L8.97293 4.93751L9.09697 5.2561H9.43886H13.1416C13.2989 5.2561 13.427 5.3472 13.4785 5.49565Z" fill="#34317D" stroke="#34317D"/>
</svg>
