<svg width="16" height="17" viewBox="0 0 16 17" fill="none" xmlns="http://www.w3.org/2000/svg">
<path fill-rule="evenodd" clip-rule="evenodd" d="M4.07382 15.1167L6.90363 13.3273C7.57471 12.9029 8.42385 12.9025 9.09535 13.3262L11.9327 15.1168L11.1624 11.6554C10.9972 10.9135 11.233 10.1218 11.8089 9.59974L14.437 7.21716L11.0203 6.90398C10.2268 6.83125 9.57101 6.3105 9.28365 5.60098L8.00234 2.43728L6.72802 5.59787C6.44129 6.30901 5.78466 6.83128 4.98981 6.90401L1.56312 7.21756L4.19158 9.60044C4.76654 10.1217 5.00248 10.9117 4.83884 11.6527L4.07382 15.1167ZM2.74997 15.5465C2.57467 16.3402 3.3971 16.9644 4.06325 16.5431L7.54498 14.3415C7.82472 14.1646 8.17504 14.1644 8.45494 14.3411L11.9451 16.5436C12.6119 16.9644 13.4341 16.3388 13.2574 15.545L12.3337 11.3947C12.2595 11.0615 12.3678 10.7128 12.6148 10.4888L15.6947 7.69669C16.2827 7.16361 15.9699 6.15265 15.195 6.08161L11.1298 5.70899C10.8053 5.67925 10.523 5.46443 10.3959 5.15051L8.8124 1.2407C8.50865 0.490724 7.49296 0.491582 7.19037 1.24207L5.61507 5.14914C5.4882 5.46382 5.20551 5.67926 4.88046 5.709L0.805119 6.0819C0.0301294 6.15282 -0.282754 7.16387 0.305309 7.69699L3.3856 10.4895C3.63225 10.7131 3.74057 11.0611 3.66707 11.3939L2.74997 15.5465Z" fill="#34317D"/>
</svg>
