<svg width="14" height="15" viewBox="0 0 14 15" fill="none" xmlns="http://www.w3.org/2000/svg">
<g clip-path="url(#clip0_6119_2553)">
<path fill-rule="evenodd" clip-rule="evenodd" d="M3.15644 0.678589L10.8439 0.678589C11.2676 0.67858 11.6235 0.678572 11.9148 0.70238C12.2194 0.72728 12.5087 0.781357 12.7834 0.921348C13.2018 1.13453 13.5435 1.47475 13.7574 1.89452C13.8974 2.16919 13.9514 2.45858 13.9762 2.76288C14 3.05395 14 3.40952 14 3.83241V11.5252C14 11.948 14 12.3035 13.9762 12.5944C13.9514 12.8986 13.8973 13.1878 13.7574 13.4624C13.5437 13.8818 13.2022 14.2226 12.7834 14.436C12.5088 14.5759 12.2197 14.6299 11.9154 14.6548C11.6245 14.6786 11.269 14.6786 10.8462 14.6786H3.15382C2.73093 14.6786 2.37536 14.6786 2.08429 14.6548C1.77999 14.63 1.4906 14.5759 1.21594 14.436C0.796488 14.2223 0.456112 13.8811 0.242759 13.4624C0.102745 13.1876 0.0486838 12.8982 0.0237899 12.5935C-1.71468e-05 12.3022 -9.10583e-06 11.9462 3.7673e-07 11.5225L3.7673e-07 3.83502C-9.10583e-06 3.41127 -1.7071e-05 3.05513 0.0237877 2.76369C0.0486726 2.45901 0.102713 2.16938 0.242759 1.89452C0.456295 1.47544 0.796848 1.13488 1.21594 0.921348C1.49079 0.781302 1.78043 0.727261 2.0851 0.702377C2.37655 0.678572 2.73268 0.67858 3.15644 0.678589ZM2.18871 1.97088C1.96264 1.98934 1.8592 2.022 1.79374 2.05536C1.61413 2.14687 1.46828 2.29272 1.37677 2.47233C1.34341 2.53779 1.31076 2.64123 1.29229 2.8673C1.27322 3.10075 1.27273 3.40457 1.27273 3.86056L1.27273 11.4969C1.27273 11.9529 1.27322 12.2566 1.29229 12.4899C1.31074 12.7157 1.34338 12.8191 1.37677 12.8846C1.46847 13.0646 1.61449 13.2107 1.79374 13.302C1.85906 13.3353 1.9623 13.3679 2.18795 13.3863C2.421 13.4054 2.72424 13.4059 3.17936 13.4059H3.18182L3.18182 1.95132C2.72591 1.95132 2.42214 1.95181 2.18871 1.97088ZM4.45455 1.95132L4.45455 13.4059H10.8206C11.2758 13.4059 11.5788 13.4054 11.8117 13.3863C12.0371 13.3679 12.1402 13.3353 12.2056 13.302C12.3856 13.2103 12.5321 13.0639 12.6234 12.8846C12.6567 12.8192 12.6893 12.7161 12.7077 12.4907C12.7268 12.2578 12.7273 11.9547 12.7273 11.4996V3.85795C12.7273 3.40283 12.7268 3.09959 12.7077 2.86654C12.6893 2.64089 12.6567 2.53765 12.6234 2.47233C12.5322 2.29341 12.3859 2.14722 12.2056 2.05536C12.14 2.02195 12.0368 1.98933 11.8111 1.97088C11.5779 1.95181 11.2743 1.95132 10.8183 1.95132L4.45455 1.95132ZM6.36364 4.49677C6.36364 4.14532 6.64855 3.86041 7 3.86041H10.1818C10.5333 3.86041 10.8182 4.14532 10.8182 4.49677C10.8182 4.84822 10.5333 5.13313 10.1818 5.13313L7 5.13313C6.64855 5.13313 6.36364 4.84822 6.36364 4.49677ZM6.36364 6.88313C6.36364 6.53168 6.64855 6.24677 7 6.24677L10.1818 6.24677C10.5333 6.24677 10.8182 6.53168 10.8182 6.88313C10.8182 7.23459 10.5333 7.5195 10.1818 7.5195L7 7.5195C6.64855 7.5195 6.36364 7.23459 6.36364 6.88313Z" fill="#6D40C4"/>
</g>
<defs>
<clipPath id="clip0_6119_2553">
<rect width="14" height="14" fill="white" transform="translate(0 0.678589)"/>
</clipPath>
</defs>
</svg>
