<svg width="14" height="15" viewBox="0 0 14 15" fill="none" xmlns="http://www.w3.org/2000/svg">
<g clip-path="url(#clip0_6191_9115)">
<path d="M11.6493 5.56587H7.62507L7.99092 1.11807C8.00264 0.950778 7.94115 0.786697 7.82232 0.668362C7.70354 0.550089 7.53919 0.489231 7.37198 0.50157C7.20482 0.51398 7.05127 0.598407 6.95116 0.732977L1.50212 8.41554C1.42183 8.53225 1.38723 8.67441 1.40491 8.81493C1.42258 8.95546 1.49128 9.08464 1.59795 9.17783C1.70463 9.27103 1.84182 9.3218 1.98347 9.32049H6.10395L5.68032 13.8646C5.66885 13.9927 5.7005 14.1211 5.77026 14.2292C5.84002 14.3373 5.94393 14.4191 6.06541 14.4615L6.25796 14.4999V14.5C6.45376 14.4975 6.6349 14.396 6.73932 14.2304L12.1306 6.47083C12.2109 6.35413 12.2455 6.21197 12.2278 6.07145C12.2101 5.93092 12.1414 5.80174 12.0348 5.70855C11.9281 5.61534 11.7909 5.56457 11.6492 5.56589L11.6493 5.56587Z" fill="#34317D"/>
</g>
<defs>
<clipPath id="clip0_6191_9115">
<rect width="14" height="14" fill="white" transform="translate(0 0.5)"/>
</clipPath>
</defs>
</svg>
