<svg width="12" height="13" viewBox="0 0 12 13" fill="none" xmlns="http://www.w3.org/2000/svg">
<path d="M0.867203 11.2922C0.482037 11.2922 0.241507 10.875 0.43449 10.5417L5.56727 1.676C5.75985 1.34335 6.24011 1.34335 6.43269 1.676L11.5655 10.5417C11.7585 10.875 11.5179 11.2922 11.1328 11.2922H0.867203ZM6.05691 9.69676C6.1735 9.69676 6.27043 9.65733 6.34771 9.57847C6.42498 9.49959 6.46362 9.40187 6.46362 9.28529C6.46362 9.16869 6.42418 9.07176 6.34532 8.99449C6.26645 8.91722 6.16872 8.87858 6.05214 8.87858C5.93555 8.87858 5.83862 8.91801 5.76134 8.99688C5.68407 9.07575 5.64543 9.17348 5.64543 9.29006C5.64543 9.40665 5.68486 9.50358 5.76373 9.58085C5.8426 9.65813 5.94033 9.69676 6.05691 9.69676ZM5.64543 7.77404C5.64543 7.99997 5.82859 8.18313 6.05452 8.18313C6.28046 8.18313 6.46362 7.99997 6.46362 7.77404V5.53767C6.46362 5.31174 6.28046 5.12858 6.05452 5.12858C5.82859 5.12858 5.64543 5.31174 5.64543 5.53767V7.77404Z" fill="#EB5757"/>
</svg>
