<svg xmlns="http://www.w3.org/2000/svg" width="12" height="12" viewBox="0 0 12 12" fill="none">
  <path d="M0.866959 11.1138C0.481793 11.1138 0.241263 10.6966 0.434246 10.3632L5.56702 1.49753C5.7596 1.16489 6.23987 1.16489 6.43245 1.49753L11.5652 10.3632C11.7582 10.6966 11.5177 11.1138 11.1325 11.1138H0.866959ZM6.05667 9.5183C6.17326 9.5183 6.27019 9.47886 6.34746 9.4C6.42474 9.32113 6.46337 9.2234 6.46337 9.10682C6.46337 8.99023 6.42394 8.8933 6.34508 8.81602C6.2662 8.73875 6.16848 8.70011 6.05189 8.70011C5.9353 8.70011 5.83837 8.73955 5.7611 8.81841C5.68383 8.89728 5.64519 8.99501 5.64519 9.11159C5.64519 9.22818 5.68462 9.32511 5.76348 9.40239C5.84236 9.47966 5.94008 9.5183 6.05667 9.5183ZM5.64519 7.59557C5.64519 7.8215 5.82835 8.00466 6.05428 8.00466C6.28022 8.00466 6.46337 7.8215 6.46337 7.59557V5.35921C6.46337 5.13327 6.28022 4.95011 6.05428 4.95011C5.82835 4.95011 5.64519 5.13327 5.64519 5.35921V7.59557Z" fill="#EB5757"/>
</svg>