<svg xmlns="http://www.w3.org/2000/svg" width="13" height="12" viewBox="0 0 13 12" fill="none">
  <path fill-rule="evenodd" clip-rule="evenodd" d="M10.7495 0.00018067C11.2183 -0.00653647 11.6704 0.174289 12.0052 0.502466L12.0092 0.506379L12.0128 0.510645C12.7359 1.36502 12.6435 2.64041 11.8054 3.38166L7.80631 7.38079C7.58474 7.60351 7.30403 7.75851 6.99749 7.82726L6.99635 7.82752L4.93792 8.26817H4.8134C4.62534 8.27458 4.44594 8.18872 4.33298 8.0381C4.22095 7.88873 4.18836 7.69445 4.2452 7.5169L4.68213 5.47591C4.7509 5.16928 4.9058 4.88868 5.1286 4.66708L9.13018 0.701507C9.55783 0.266173 10.1383 0.0146015 10.7484 0.000201761L10.7495 0.00018067ZM10.7556 1.09809C10.4453 1.11067 10.1521 1.24364 9.93823 1.46881L9.93617 1.47098L5.93275 5.48035C5.86566 5.54536 5.819 5.62852 5.79849 5.71965L5.54267 6.93608L6.75905 6.67506C6.85028 6.65458 6.93398 6.6078 6.99905 6.54066L7.00036 6.53931L11.0071 2.53263L11.0122 2.52849C11.3979 2.21976 11.4767 1.66509 11.1943 1.26139C11.0752 1.15163 10.9177 1.09289 10.7556 1.09809ZM4.69291 0.722901L3.3685 0.722901C2.9834 0.722892 2.65975 0.722885 2.39489 0.744518C2.11801 0.767133 1.8548 0.816244 1.60502 0.943514C1.22416 1.13757 0.914671 1.44706 0.720614 1.82792C0.593344 2.0777 0.544233 2.34091 0.521618 2.61779C0.499985 2.88265 0.499992 3.20629 0.5 3.59138V3.5914V9.13182V9.13184C0.499992 9.5169 0.499985 9.84043 0.52162 10.1052C0.544243 10.382 0.593373 10.645 0.720614 10.8948C0.914505 11.2753 1.22383 11.5853 1.60502 11.7796C1.85462 11.9067 2.11762 11.9558 2.39416 11.9784C2.65868 12 2.98183 12 3.36615 12H8.91099C9.29528 12 9.6183 12 9.88269 11.9784C10.1592 11.9558 10.422 11.9067 10.6715 11.7796C11.0522 11.5856 11.3625 11.2755 11.5567 10.8946C11.6838 10.645 11.7329 10.3822 11.7555 10.1057C11.7771 9.84123 11.7771 9.51819 11.7771 9.13389V7.80724C11.7771 7.48784 11.5182 7.22893 11.1988 7.22893C10.8794 7.22893 10.6205 7.48784 10.6205 7.80724V9.11068C10.6205 9.52429 10.62 9.79974 10.6027 10.0114C10.586 10.2163 10.5564 10.31 10.5261 10.3695C10.443 10.5326 10.3098 10.6658 10.1464 10.749C10.087 10.7793 9.99326 10.8089 9.78843 10.8256C9.5768 10.8429 9.30139 10.8434 8.88778 10.8434H3.38933C2.97573 10.8434 2.70015 10.8429 2.48836 10.8256C2.2833 10.8089 2.18947 10.7792 2.13011 10.749C1.96722 10.666 1.83451 10.5332 1.75118 10.3697C1.72084 10.3101 1.69118 10.2162 1.6744 10.011C1.65708 9.79895 1.65663 9.52299 1.65663 9.10858V3.61461C1.65663 3.20021 1.65708 2.92411 1.67441 2.71195C1.69119 2.5065 1.72087 2.4125 1.75118 2.35301C1.83434 2.18979 1.96689 2.05724 2.13011 1.97408C2.1896 1.94377 2.2836 1.91409 2.48905 1.89731C2.70121 1.87998 2.97731 1.87953 3.39171 1.87953H4.69291C5.01231 1.87953 5.27123 1.62061 5.27123 1.30121C5.27123 0.981821 5.01231 0.722901 4.69291 0.722901Z" fill="#34317D"/>
</svg>